<svg id="visual" viewBox="0 0 900 80" width="900" height="80" xmlns="http://www.w3.org/2000/svg" xmlns:xlink="http://www.w3.org/1999/xlink" version="1.1"><rect x="0" y="0" width="900" height="80" fill="#092327"></rect><path d="M0 43L18.8 38.3C37.7 33.7 75.3 24.3 112.8 26C150.3 27.7 187.7 40.3 225.2 44.2C262.7 48 300.3 43 337.8 34.8C375.3 26.7 412.7 15.3 450.2 10.3C487.7 5.3 525.3 6.7 562.8 18.3C600.3 30 637.7 52 675.2 56C712.7 60 750.3 46 787.8 40.7C825.3 35.3 862.7 38.7 881.3 40.3L900 42L900 81L881.3 81C862.7 81 825.3 81 787.8 81C750.3 81 712.7 81 675.2 81C637.7 81 600.3 81 562.8 81C525.3 81 487.7 81 450.2 81C412.7 81 375.3 81 337.8 81C300.3 81 262.7 81 225.2 81C187.7 81 150.3 81 112.8 81C75.3 81 37.7 81 18.8 81L0 81Z" fill="#03131A" stroke-linecap="round" stroke-linejoin="miter"></path></svg>